<?xml version="1.0" standalone="no"?>
<!DOCTYPE svg PUBLIC "-//W3C//DTD SVG 20010904//EN"
 "http://www.w3.org/TR/2001/REC-SVG-20010904/DTD/svg10.dtd">
<svg version="1.0" xmlns="http://www.w3.org/2000/svg"
 width="16.000000pt" height="16.000000pt" viewBox="0 0 16.000000 16.000000"
 preserveAspectRatio="xMidYMid meet">
<metadata>
Created by potrace 1.11, written by Peter Selinger 2001-2013
</metadata>
<g transform="translate(0.000000,16.000000) scale(0.005161,-0.005161)"
fill="#000000" stroke="none">
<path d="M1499 3008 c-1 -2 -3 -191 -3 -421 -2 -429 0 -453 36 -430 11 6 14
90 13 431 l0 422 -22 0 c-13 0 -24 -1 -24 -2z"/>
<path d="M1230 2900 c-18 -11 -18 -327 0 -370 16 -37 53 -59 98 -55 35 3 82
39 82 62 0 7 3 13 8 13 11 0 9 333 -3 346 -5 6 -17 10 -25 9 -8 -2 -17 -4 -20
-4 -3 -1 -4 -76 -4 -168 1 -93 -2 -175 -7 -184 -14 -28 -48 -30 -70 -5 -18 21
-20 38 -20 189 0 169 -5 188 -39 167z"/>
<path d="M1627 2902 c-16 -3 -17 -20 -15 -215 l3 -212 74 1 c71 1 76 3 103 33
23 25 28 41 29 84 2 69 0 78 -19 107 -9 14 -15 30 -13 35 24 71 8 129 -44 154
-30 14 -84 20 -118 13z m120 -81 c13 -27 -2 -85 -21 -78 -6 2 -18 1 -27 -4
-24 -12 -40 12 -38 57 3 52 6 55 42 51 21 -2 36 -11 44 -26z m8 -151 c18 -15
20 -78 3 -115 -10 -23 -21 -27 -63 -27 -8 0 -19 0 -25 1 -5 0 -9 36 -8 84 l2
84 38 -7 c21 -4 44 -13 53 -20z"/>
<path d="M1126 2693 c-3 -3 -14 -7 -24 -8 -9 -1 -39 -12 -67 -25 -27 -12 -54
-23 -60 -24 -20 -4 -100 -49 -107 -60 -4 -6 -8 -7 -8 -3 0 15 -175 -112 -246
-178 -48 -46 -75 -64 -88 -60 -11 2 -26 -1 -33 -7 -10 -8 -29 0 -76 31 -35 22
-70 41 -79 41 -10 0 -24 -22 -38 -56 -22 -54 -24 -56 -54 -50 -17 4 -44 8 -61
9 -33 2 -31 8 -34 -140 -1 -29 -4 -52 -8 -52 -50 8 -55 -19 -19 -96 80 -168
106 -228 106 -245 0 -34 -24 -125 -34 -132 -7 -5 -6 -8 2 -8 7 0 11 -4 8 -9
-13 -21 -22 -230 -13 -309 2 -26 -2 -37 -22 -52 l-26 -19 33 -33 c24 -25 36
-51 46 -99 16 -74 44 -158 59 -176 5 -7 7 -13 3 -13 -11 0 85 -182 128 -244
22 -32 46 -65 51 -74 25 -38 122 -138 200 -207 53 -46 188 -133 265 -170 41
-20 83 -40 92 -45 10 -6 22 -10 27 -10 5 0 26 -7 47 -17 22 -9 48 -18 59 -19
74 -12 95 -17 95 -23 0 -3 15 -8 33 -9 66 -7 432 -10 442 -4 5 4 12 7 15 7 47
6 107 18 115 23 6 4 19 7 30 8 11 1 31 6 45 12 14 5 28 10 33 11 4 0 21 8 37
16 16 8 32 15 35 15 13 -2 168 81 226 121 35 24 67 43 72 41 4 -1 7 4 7 12 0
8 8 17 18 20 28 9 162 145 218 221 16 22 31 42 34 45 11 11 50 70 50 76 0 3 9
19 21 35 11 16 17 29 12 29 -4 0 -3 4 2 8 15 10 74 133 61 125 -6 -4 -6 0 1 9
7 8 10 18 6 21 -3 4 -1 7 5 7 7 0 12 9 12 20 0 11 4 20 9 20 5 0 8 8 7 17 -2
10 3 33 11 52 8 18 12 40 9 47 -3 8 -2 14 3 14 4 0 8 6 9 13 7 70 9 84 13 93
3 5 5 28 5 51 -1 24 4 43 9 43 6 0 3 5 -5 10 -8 5 -10 10 -5 10 11 0 11 91 0
109 -3 6 -1 11 5 11 7 0 9 8 4 23 -4 12 -8 45 -10 72 -2 28 -6 64 -9 80 -4 17
-8 39 -9 50 -2 11 -6 27 -9 35 -3 8 -9 29 -13 45 -4 17 -9 35 -10 40 -15 45
-14 62 8 85 13 14 46 52 73 85 28 33 55 66 62 73 7 7 20 26 30 42 9 17 21 30
25 30 4 0 8 6 8 14 0 8 7 16 15 20 18 7 20 52 3 63 -34 21 -126 23 -157 4 -23
-15 -23 -14 -16 9 4 14 13 32 20 40 7 8 21 25 31 38 10 12 17 24 15 25 -2 1 1
12 7 24 10 19 9 23 -9 28 -26 9 -44 -13 -78 -97 -16 -41 -26 -34 -26 16 0 24
2 44 5 44 32 -2 42 4 37 22 -3 11 -1 23 5 26 12 8 -20 44 -39 44 -8 0 -24 -9
-36 -20 -18 -18 -20 -24 -9 -40 10 -16 10 -20 -1 -20 -7 0 -30 -12 -51 -26
-38 -26 -40 -19 -6 21 29 33 59 96 53 111 -12 33 -68 -15 -78 -67 -5 -26 -24
-59 -35 -59 -4 0 -13 15 -19 33 -13 38 -52 89 -87 112 -23 15 -24 14 -44 -33
-20 -43 -27 -64 -29 -84 -2 -15 -17 -8 -47 20 -120 114 -290 217 -455 276 -40
14 -73 26 -74 26 0 0 -2 -13 -3 -30 -2 -23 2 -30 16 -30 10 0 22 -3 26 -7 4
-5 11 -8 14 -8 44 -1 309 -143 334 -179 4 -6 8 -7 8 -2 0 5 8 -1 19 -12 10
-12 21 -22 24 -22 9 0 107 -98 107 -107 0 -4 -11 -44 -25 -88 -14 -44 -27 -93
-31 -110 -3 -16 -9 -34 -14 -41 -6 -6 -8 -13 -5 -15 2 -3 -3 -29 -11 -59 -16
-59 -23 -90 -30 -130 -2 -14 -7 -38 -10 -55 -3 -16 -7 -79 -10 -140 -3 -96 -7
-116 -30 -160 -15 -27 -32 -53 -38 -57 -6 -4 -7 -8 -3 -8 5 0 0 -12 -11 -27
-10 -16 -40 -67 -66 -115 -52 -98 -68 -114 -60 -66 10 63 11 193 2 211 -5 9
-14 17 -20 17 -25 0 -159 -161 -230 -275 -26 -42 -102 -186 -103 -195 0 -3 -6
-14 -12 -25 -13 -24 -50 -133 -57 -166 -29 -146 -36 -235 -22 -326 7 -52 6
-55 -60 -173 -37 -66 -70 -120 -74 -120 -4 0 -164 270 -214 365 -6 10 -17 25
-23 33 -7 7 -13 20 -13 28 0 8 -4 14 -10 14 -5 0 -10 5 -10 10 0 6 -11 27 -23
48 -27 42 -27 52 1 111 23 47 22 49 -45 55 -54 5 -56 7 -92 70 -31 54 -40 96
-20 96 5 0 8 4 4 9 -3 5 -1 12 5 16 6 4 8 10 6 13 -11 18 33 56 69 59 82 6
154 62 180 137 13 37 14 244 1 299 -3 15 -8 37 -10 50 -8 43 -17 56 -34 49
-33 -12 -165 -116 -219 -171 -82 -83 -109 -146 -91 -206 5 -16 10 -34 11 -40
2 -5 16 -30 32 -55 33 -50 40 -70 25 -70 -6 0 -10 -8 -10 -19 0 -10 -6 -24
-14 -30 -10 -9 -15 -7 -20 6 -3 10 -12 27 -19 38 -6 11 -36 62 -65 113 -44 75
-52 95 -42 107 7 8 10 15 7 15 -3 0 3 17 13 38 l18 37 -31 7 c-17 3 -38 5 -47
3 -19 -4 -67 34 -72 56 -2 8 -5 16 -9 19 -3 3 -20 31 -38 64 l-33 59 35 36
c55 56 78 111 82 188 3 81 -11 117 -86 226 -30 43 -58 87 -64 97 -5 11 -13 20
-17 20 -5 0 -8 5 -8 11 0 5 -14 27 -30 48 l-31 38 55 56 c30 32 57 57 60 57 3
0 20 14 38 30 36 34 180 125 243 155 22 10 72 31 110 45 55 22 70 32 71 49 1
23 -9 35 -20 24z m1450 -301 c27 -49 25 -122 -6 -237 -6 -22 -12 -47 -14 -55
-34 -139 -60 -209 -99 -268 -24 -37 -59 -95 -77 -129 -17 -35 -33 -63 -35 -63
-7 0 8 116 17 121 7 4 6 9 -1 13 -6 4 -9 12 -6 17 7 11 16 44 22 87 3 17 9 32
13 32 5 0 7 8 5 18 -1 9 2 27 6 40 5 12 11 33 13 45 3 12 17 63 32 112 15 50
28 97 29 105 1 8 8 29 15 45 6 17 13 35 14 40 10 46 37 115 45 115 4 0 16 -17
27 -38z m-2195 -69 c12 -10 32 -27 46 -38 l24 -20 -26 -45 c-13 -25 -32 -59
-41 -77 -14 -28 -19 -31 -60 -30 -24 1 -44 4 -44 7 0 3 9 34 21 70 11 36 22
72 24 80 6 28 24 70 30 70 2 0 14 -8 26 -17z m2374 -55 c-8 -49 -13 -72 -15
-75 -3 -4 -7 -20 -9 -35 -1 -7 -18 -31 -39 -54 -20 -22 -56 -62 -79 -89 -42
-46 -54 -44 -34 7 20 49 24 64 25 80 1 9 4 20 9 24 4 4 7 18 7 32 0 17 20 45
63 88 34 35 66 64 71 64 5 0 5 -19 1 -42z m-2163 -106 c34 -48 68 -91 75 -95
7 -5 11 -12 9 -16 -3 -4 2 -17 12 -27 53 -59 75 -150 58 -240 -14 -75 -109
-155 -202 -168 -81 -12 -194 46 -227 117 -17 34 -14 91 5 115 7 8 7 12 -1 12
-8 0 -8 5 -2 18 6 9 40 80 76 157 79 168 113 227 125 220 5 -3 37 -45 72 -93z
m-341 76 c1 -7 0 -17 -1 -23 -1 -5 -4 -17 -5 -25 -2 -8 -4 -16 -5 -17 -4 -4
-7 -21 -9 -38 0 -8 -7 -15 -15 -15 -10 0 -13 16 -13 65 1 61 2 65 24 65 13 0
24 -6 24 -12z m2717 -66 c-7 -9 -21 -24 -30 -33 -10 -9 -18 -21 -18 -27 0 -6
-6 -15 -13 -19 -7 -4 -25 -24 -40 -43 -99 -124 -300 -332 -372 -387 -43 -32
-105 -67 -110 -61 -13 12 108 212 180 297 151 179 270 282 341 295 14 3 29 7
32 10 2 3 13 1 24 -5 16 -9 17 -13 6 -27z m-2632 -115 c4 -3 1 -14 -7 -23 -8
-10 -13 -20 -13 -23 2 -6 -5 -25 -29 -83 -9 -21 -14 -38 -11 -38 3 0 0 -9 -6
-21 -10 -18 -24 -19 -26 -1 0 4 -9 27 -21 52 -41 89 -61 139 -58 142 7 6 164
2 171 -5z m2412 -249 c0 -7 3 -23 6 -35 3 -13 8 -32 11 -44 2 -11 6 -28 9 -37
8 -26 15 -72 20 -135 3 -32 8 -62 11 -67 3 -5 1 -12 -5 -15 -8 -5 -8 -11 0
-20 6 -7 7 -15 3 -18 -5 -3 -7 -23 -5 -44 4 -55 -1 -134 -12 -183 -3 -14 -7
-37 -8 -52 -1 -16 -6 -28 -10 -28 -3 0 -7 -8 -6 -17 0 -25 -6 -46 -37 -133
-98 -270 -283 -495 -540 -657 -59 -38 -202 -104 -227 -106 -10 -1 -18 -4 -18
-8 0 -4 -15 -10 -32 -14 -18 -4 -37 -9 -43 -11 -5 -2 -30 -8 -55 -13 -25 -6
-56 -13 -70 -16 -60 -13 -167 -17 -174 -6 -4 6 -2 11 3 11 6 0 11 7 11 15 0 8
5 15 12 15 6 0 8 3 5 6 -4 4 2 19 12 33 10 14 44 73 76 131 32 58 67 115 79
128 11 13 71 48 133 79 62 30 113 59 113 64 0 5 4 9 10 9 15 0 56 36 150 130
95 95 130 136 130 149 0 5 4 11 8 13 40 16 210 350 216 423 1 11 4 25 7 30 10
19 4 40 -13 43 -26 5 -158 -64 -263 -136 -33 -23 -60 -40 -62 -38 -2 1 31 65
74 140 56 100 84 141 102 148 56 22 78 34 121 62 25 16 53 39 63 49 9 11 17
18 17 15 0 -3 36 30 81 73 81 80 95 89 97 67z m-2433 -157 c71 -65 118 -85
207 -85 42 0 83 5 90 11 10 8 18 8 31 -1 9 -7 17 -16 17 -18 0 -3 30 -57 66
-119 36 -63 79 -139 96 -169 17 -30 35 -60 40 -67 15 -19 -1 -35 -25 -27 -24
8 -49 12 -85 13 -17 1 -28 13 -45 49 -29 62 -46 85 -81 107 -35 23 -48 27
-106 27 -48 1 -94 -6 -133 -21 -14 -6 -28 -7 -31 -4 -3 4 -6 0 -6 -7 0 -7 -3
-11 -6 -7 -4 3 -18 0 -33 -7 -14 -7 -36 -17 -49 -21 -20 -6 -22 -4 -18 19 3
14 1 26 -3 26 -5 0 -6 12 -4 28 2 15 4 33 3 40 -3 63 4 182 11 182 4 0 6 8 6
18 0 45 4 72 9 72 4 0 26 -18 49 -39z m899 -167 c-15 -33 -27 -65 -27 -71 0
-7 -4 -13 -9 -13 -4 0 -8 -4 -8 -10 0 -5 -11 -34 -25 -64 -14 -30 -25 -60 -25
-65 0 -6 -4 -11 -8 -11 -4 0 -8 -10 -9 -22 -1 -12 -8 -28 -16 -35 -12 -12 -17
-8 -36 31 -22 49 -28 101 -11 111 6 4 8 10 5 14 -7 12 34 63 99 122 33 30 67
61 75 69 26 25 24 7 -5 -56z m81 -71 c1 -65 -2 -124 -8 -130 -5 -7 -7 -13 -3
-13 12 0 -27 -65 -48 -80 -12 -8 -23 -13 -25 -11 -2 1 -7 -1 -10 -7 -3 -5 -20
-12 -38 -15 -36 -7 -36 -4 -4 68 13 28 24 57 26 66 2 9 13 38 26 65 45 101 57
132 52 138 -4 3 -1 6 5 6 7 0 12 10 12 22 0 12 3 18 7 15 3 -4 7 -60 8 -124z
m-728 -98 c39 -16 88 -65 96 -94 5 -19 -8 -20 -103 -6 -25 4 -59 8 -76 9 -17
2 -36 6 -42 10 -7 4 -12 2 -12 -6 0 -8 -3 -9 -8 -3 -4 6 -27 12 -52 14 -41 3
-73 6 -92 10 -5 0 -8 6 -8 11 0 6 3 9 8 8 9 -2 63 13 77 21 10 5 13 6 50 15
11 2 20 5 20 6 0 1 11 4 24 6 14 2 26 6 27 7 9 9 61 4 91 -8z m1823 -4 c0 -5
-19 -29 -42 -53 -24 -25 -77 -83 -118 -129 -41 -46 -97 -107 -124 -136 -26
-29 -54 -60 -62 -70 -13 -17 -13 -17 -14 4 0 12 5 25 10 28 6 4 8 11 5 16 -7
10 48 124 68 143 46 43 260 203 275 206 1 0 2 -4 2 -9z m-344 -63 c-3 -35 -8
-76 -11 -93 -3 -16 -7 -41 -9 -55 -3 -14 -5 -25 -6 -25 -1 0 -4 -13 -6 -30 -3
-16 -9 -32 -15 -33 -5 -2 -7 -7 -4 -12 6 -9 -36 -130 -60 -177 -8 -15 -15 -34
-15 -40 0 -7 -4 -13 -10 -13 -5 0 -10 -5 -10 -10 0 -16 -85 -140 -130 -189
-25 -28 -40 -38 -40 -28 0 9 4 18 9 21 5 3 11 16 15 29 3 13 15 45 28 73 12
27 23 51 23 54 4 12 17 47 30 75 33 74 145 355 145 364 0 6 5 11 11 11 6 0 9
7 6 15 -4 8 -2 17 3 20 5 3 16 28 25 55 9 28 19 50 21 50 3 0 3 -28 0 -62z
m-53 33 c-6 -3 -25 -44 -42 -91 -18 -46 -41 -102 -51 -125 -11 -22 -33 -76
-50 -120 -18 -44 -36 -86 -42 -93 -6 -7 -8 -15 -5 -19 4 -3 -3 -19 -14 -34
-11 -16 -18 -29 -14 -29 3 0 -1 -13 -9 -29 -9 -16 -12 -31 -9 -35 4 -3 1 -6
-5 -6 -7 0 -12 -5 -12 -12 0 -20 -32 -98 -40 -98 -9 0 -5 78 6 120 8 33 14 59
20 90 15 75 100 253 182 385 65 104 74 115 86 108 4 -3 4 -8 -1 -12z m455 -3
c-2 -7 -5 -15 -8 -18 -6 -6 -39 -77 -41 -88 -1 -4 -10 -19 -20 -34 -10 -14
-19 -29 -19 -33 0 -11 -104 -167 -141 -210 -53 -62 -133 -141 -184 -179 -25
-20 -53 -42 -61 -51 -9 -8 -22 -15 -30 -15 -8 0 -14 -4 -14 -9 0 -5 -8 -11
-17 -15 -10 -3 -24 -9 -31 -12 -17 -8 85 154 117 187 14 14 40 42 56 61 38 45
150 170 195 219 94 102 166 183 173 195 10 17 28 18 25 2z m-2043 -93 c17 -3
46 -7 65 -9 19 -3 52 -6 73 -7 20 -1 37 -5 37 -8 0 -4 16 -6 35 -5 45 2 50 -7
22 -39 -29 -35 -89 -59 -128 -52 -35 6 -125 49 -151 73 -10 8 -18 11 -18 6 0
-5 -4 -4 -8 1 -4 6 -23 21 -42 34 l-35 23 60 -7 c33 -4 74 -8 90 -10z m405
-56 c0 -3 10 -5 23 -4 57 5 81 -12 130 -95 26 -45 47 -85 47 -91 0 -5 4 -9 8
-9 10 0 37 -50 34 -62 -1 -5 2 -8 8 -8 5 0 10 -4 10 -10 0 -5 18 -39 40 -75
22 -36 40 -70 40 -75 0 -6 3 -10 8 -10 4 0 12 -10 18 -23 6 -12 23 -45 38 -74
l27 -51 -25 -51 -26 -51 23 -5 c13 -4 39 -8 58 -10 19 -2 37 -4 40 -4 4 -1 19
-26 35 -56 16 -30 32 -55 37 -55 4 0 7 -5 7 -12 0 -6 18 -42 40 -79 22 -37 40
-70 40 -73 0 -9 -121 -3 -126 6 -3 4 -11 5 -18 2 -7 -3 -42 2 -77 11 -35 10
-72 19 -83 21 -28 5 -109 36 -123 47 -7 5 -13 7 -13 3 0 -7 -211 101 -220 112
-3 4 -32 27 -64 51 -62 47 -182 162 -229 221 -40 51 -107 154 -106 164 0 5 -3
12 -8 15 -25 17 -140 306 -127 320 2 2 25 -10 51 -27 117 -75 198 -94 274 -64
30 12 109 85 109 101 0 7 20 10 50 9 28 -1 50 -5 50 -9z"/>
</g>
</svg>
