<?xml version="1.0" standalone="no"?>
<!DOCTYPE svg PUBLIC "-//W3C//DTD SVG 20010904//EN"
 "http://www.w3.org/TR/2001/REC-SVG-20010904/DTD/svg10.dtd">
<svg version="1.0" xmlns="http://www.w3.org/2000/svg"
 width="16.000000pt" height="16.000000pt" viewBox="0 0 16.000000 16.000000"
 preserveAspectRatio="xMidYMid meet">
<metadata>
Created by potrace 1.11, written by Peter Selinger 2001-2013
</metadata>
<g transform="translate(0.000000,16.000000) scale(0.005161,-0.005161)"
fill="#000000" stroke="none">
<path d="M1225 1446 c-122 -56 -193 -204 -153 -320 11 -34 17 -40 46 -42 30
-2 45 16 24 30 -5 3 -10 33 -11 66 -3 78 25 140 81 180 137 100 322 -8 312
-182 -1 -26 -8 -56 -14 -67 -6 -12 -9 -22 -8 -22 2 -1 18 -2 35 -4 31 -2 34 1
44 39 26 96 6 181 -58 252 -80 90 -196 117 -298 70z"/>
<path d="M2776 1447 c-72 -40 -98 -122 -59 -187 18 -31 45 -47 138 -82 48 -19
63 -30 77 -58 15 -29 23 -35 50 -35 30 0 33 3 36 32 4 42 -43 95 -105 117 -27
10 -65 24 -85 33 -66 28 -69 101 -4 128 39 16 78 12 124 -16 18 -10 35 -19 37
-19 1 0 8 13 13 30 10 26 8 31 -11 42 -77 43 -153 49 -211 15z"/>
<path d="M100 1423 l0 -32 82 -3 81 -3 1 -150 1 -150 35 0 35 0 1 150 1 150
76 3 c42 2 77 6 78 10 1 4 2 18 3 32 l3 26 -199 0 -198 -1 0 -32z"/>
<path d="M578 1453 c-2 -5 -4 -87 -3 -183 l1 -175 37 -3 c40 -3 40 -4 39 66 0
17 5 33 11 33 7 1 63 2 124 3 l113 1 0 -52 0 -53 38 0 38 0 0 183 -1 182 -37
3 -38 3 0 -100 c0 -98 -1 -101 -22 -102 -81 -3 -208 0 -216 5 -6 3 -10 41 -10
84 0 118 2 112 -36 112 -19 0 -36 -3 -38 -7z"/>
<path d="M1694 1445 c-1 -5 -2 -89 -1 -185 l2 -174 35 -1 35 0 0 138 c0 75 2
137 6 137 3 0 27 -60 53 -134 26 -74 53 -136 59 -139 7 -2 41 -3 76 -3 l63 1
52 145 51 145 3 -142 c1 -79 6 -144 10 -144 51 -8 62 -7 63 9 6 99 2 352 -6
353 -36 4 -98 4 -105 -1 -4 -3 -31 -68 -60 -145 -28 -77 -55 -149 -60 -160 -4
-11 -11 -29 -15 -40 -5 -15 -17 8 -47 90 -21 61 -43 119 -48 130 -5 11 -16 43
-26 70 -10 28 -19 52 -21 54 -7 9 -116 6 -119 -4z"/>
<path d="M2458 1447 c-8 -6 -45 -84 -83 -172 -38 -88 -73 -166 -78 -172 -6 -9
-5 -13 4 -14 33 -3 379 -4 379 -1 0 4 -152 354 -156 360 -6 10 -53 10 -66 -1z
m75 -195 c21 -53 37 -99 37 -102 0 -4 -132 -5 -162 -1 -10 1 71 201 82 201 3
0 22 -44 43 -98z"/>
<path d="M331 994 c-106 -28 -189 -93 -217 -172 -18 -50 -17 -137 1 -175 38
-81 89 -115 249 -168 153 -50 186 -76 186 -144 0 -35 -6 -49 -31 -74 -71 -72
-190 -66 -322 16 -21 13 -41 21 -46 19 -5 -3 -14 -26 -21 -51 -7 -25 -17 -48
-21 -51 -5 -3 -9 -30 -9 -60 l0 -54 173 0 c175 0 234 9 309 44 83 40 140 129
140 220 -1 79 -8 99 -54 157 -26 31 -95 67 -203 102 -60 21 -125 46 -143 57
-80 49 -62 163 33 198 75 27 138 18 236 -32 56 -28 89 -40 89 -32 0 8 10 37
21 65 21 51 22 52 3 66 -86 68 -255 99 -373 69z"/>
<path d="M2571 998 c-140 -25 -274 -117 -331 -228 -51 -100 -67 -255 -36 -359
46 -155 160 -266 323 -314 39 -12 105 -16 272 -17 l221 -1 0 261 c0 201 -3
260 -12 261 -40 3 -306 4 -319 1 -13 -3 -16 -16 -15 -60 0 -32 4 -59 8 -62 4
-3 46 -5 93 -5 79 1 85 0 86 -19 4 -96 3 -184 -3 -197 -14 -32 -161 -51 -252
-34 -136 27 -232 142 -241 291 -10 150 54 266 177 324 53 25 68 28 141 25 110
-4 142 -13 273 -71 7 -3 19 15 30 43 9 26 21 52 26 57 4 6 8 13 8 17 0 11
-126 60 -189 74 -12 3 -31 7 -43 10 -39 10 -171 12 -217 3z"/>
<path d="M898 985 c-1 0 -2 -199 -3 -442 l-2 -443 79 0 78 0 0 440 c0 242 -3
441 -7 441 -7 1 -139 5 -145 4z"/>
<path d="M1273 976 c-4 -5 -6 -203 -6 -440 l0 -431 79 0 79 0 0 333 c0 182 3
332 6 332 4 0 38 -55 77 -122 38 -68 100 -175 137 -238 37 -63 78 -133 90
-156 13 -22 35 -59 49 -82 14 -23 26 -46 26 -51 0 -16 29 -21 120 -21 61 0 89
4 92 13 3 10 3 852 -1 867 0 3 -35 6 -76 6 l-75 1 -1 -71 c0 -39 0 -188 0
-331 0 -246 -1 -259 -17 -236 -9 13 -98 161 -197 329 l-180 306 -98 1 c-54 0
-101 -4 -104 -9z"/>
</g>
</svg>
